<svg xmlns="http://www.w3.org/2000/svg" xmlns:xlink="http://www.w3.org/1999/xlink" viewBox="0 0 196.06 431.52"><defs><style>.cls-1{fill:none;}.cls-2{fill:#fff6c6;}.cls-3{fill:#611e0b;}.cls-4{clip-path:url(#clip-path);}.cls-5{fill:#f9ae51;}.cls-6{fill:#f7cfa4;}.cls-7{fill:#c25928;}</style><clipPath id="clip-path"><polygon id="_Clipping_Path_" data-name="&lt;Clipping Path&gt;" class="cls-1" points="0 158.3 100.18 417.33 196.06 158.3 0 158.3"/></clipPath></defs><title>Asset 3</title><g id="Layer_2" data-name="Layer 2"><g id="Layer_1-2" data-name="Layer 1"><path id="_Path_" data-name="&lt;Path&gt;" class="cls-2" d="M118.52,117.92c-26.2,1.74-48.86-4.57-74.54-6.46-7-.51-14.66-1.27-19.86-6-8.53-7.83-6.13-21.61-3-32.78,5.19-18.8,10.73-31,30.64-38.18,11.22-4,23.58-4.11,34.79-8.17S108.36,11.75,106.31,0c-1.82,9.47,6.83,17.39,14.57,23.14l38.9,28.91c6.07,4.52,12.37,9.3,15.69,16.1,6.56,13.48-1.42,30.46-13.9,38.77S133.48,116.93,118.52,117.92Z"/><ellipse id="_Path_2" data-name="&lt;Path&gt;" class="cls-3" cx="98.03" cy="144.66" rx="93.1" ry="60.52"/><g id="_Clip_Group_" data-name="&lt;Clip Group&gt;"><g class="cls-4"><polygon id="_Path_3" data-name="&lt;Path&gt;" class="cls-5" points="0 158.3 100.18 417.33 196.06 158.3 0 158.3"/><rect id="_Rectangle_" data-name="&lt;Rectangle&gt;" class="cls-6" x="3.91" y="297.18" width="260.21" height="8.48" transform="translate(435.44 167.41) rotate(90)"/><rect id="_Rectangle_2" data-name="&lt;Rectangle&gt;" class="cls-6" x="-28.85" y="292.14" width="260.21" height="8.48" transform="translate(397.64 195.13) rotate(90)"/><rect id="_Rectangle_3" data-name="&lt;Rectangle&gt;" class="cls-6" x="-103.26" y="297.18" width="260.21" height="8.48" transform="translate(328.26 274.58) rotate(90)"/><rect id="_Rectangle_4" data-name="&lt;Rectangle&gt;" class="cls-6" x="-67.49" y="297.18" width="260.21" height="8.48" transform="translate(364.04 238.8) rotate(90)"/><rect id="_Rectangle_5" data-name="&lt;Rectangle&gt;" class="cls-6" x="42.5" y="297.18" width="260.21" height="8.48" transform="translate(474.03 128.82) rotate(90)"/><rect id="_Rectangle_6" data-name="&lt;Rectangle&gt;" class="cls-6" x="14.11" y="250.82" width="174.6" height="8.48"/><rect id="_Rectangle_7" data-name="&lt;Rectangle&gt;" class="cls-6" x="10.73" y="283.57" width="174.6" height="8.48"/><rect id="_Rectangle_8" data-name="&lt;Rectangle&gt;" class="cls-6" x="14.11" y="357.99" width="174.6" height="8.48"/><rect id="_Rectangle_9" data-name="&lt;Rectangle&gt;" class="cls-6" x="14.11" y="322.21" width="174.6" height="8.48"/><rect id="_Rectangle_10" data-name="&lt;Rectangle&gt;" class="cls-6" x="14.11" y="212.23" width="174.6" height="8.48"/></g></g><rect id="_Rectangle_11" data-name="&lt;Rectangle&gt;" class="cls-7" y="158.3" width="196.06" height="25.31"/></g></g></svg>