<svg id="Layer_1" data-name="Layer 1" xmlns="http://www.w3.org/2000/svg" viewBox="0 0 248.11 61.47"><defs><style>.cls-1{fill:#d81e5b;}</style></defs><title>logo</title><path class="cls-1" d="M658.82,385.31a13.82,13.82,0,0,1-5.94-5.44,15.81,15.81,0,0,1-2.06-8.18,25.94,25.94,0,0,1,2.44-11.49,19,19,0,0,1,6.62-7.76,16.48,16.48,0,0,1,9.28-2.75q4.76,0,7.22,2.44a8.69,8.69,0,0,1,2.46,6.45,8.55,8.55,0,0,1-.94,4.31,3,3,0,0,1-2.71,1.63,2.91,2.91,0,0,1-1.93-.58,2,2,0,0,1-.71-1.67,10.39,10.39,0,0,1,.18-1.45,11.79,11.79,0,0,0,.26-2.11q0-4-4.27-4a9.33,9.33,0,0,0-5.54,1.9,13.24,13.24,0,0,0-4.27,5.56,21.54,21.54,0,0,0-1.63,8.74c0,3.52,1,6.24,3,8.16s4.87,2.88,8.71,2.88a23.68,23.68,0,0,0,5.79-.73,44.34,44.34,0,0,0,6.49-2.22,3.23,3.23,0,0,1,1.1-.26,1.18,1.18,0,0,1,1.06.53,2.43,2.43,0,0,1,.35,1.36q0,2.69-2.91,4a29.76,29.76,0,0,1-6.49,2,33.93,33.93,0,0,1-6.4.64A20.45,20.45,0,0,1,658.82,385.31Z" transform="translate(-650.82 -345.64)"/><path class="cls-1" d="M705.62,377.72a2.71,2.71,0,0,1,.33,1.45,4.05,4.05,0,0,1-.84,2.73,22.83,22.83,0,0,1-4.16,3.82,8.23,8.23,0,0,1-4.86,1.5,4.29,4.29,0,0,1-3.39-1.3,5.52,5.52,0,0,1-1.14-3.76,26.53,26.53,0,0,1,.62-4.4,22.8,22.8,0,0,0,.57-3.83c0-.47-.16-.7-.49-.7s-.92.49-1.62,1.47a21.7,21.7,0,0,0-2.12,3.9,31.81,31.81,0,0,0-1.71,5.1q-.84,3.53-4.14,3.52a1.69,1.69,0,0,1-1.74-1,9.47,9.47,0,0,1-.41-3.41c0-.93,0-1.68,0-2.24l0-3.52A76.51,76.51,0,0,1,682,363a42.5,42.5,0,0,1,4.09-12.35c1.81-3.32,4-5,6.49-5a3.87,3.87,0,0,1,3.28,1.74,7.5,7.5,0,0,1,1.25,4.51,19.31,19.31,0,0,1-2.59,9.22,59.63,59.63,0,0,1-8.45,11.15c-.09,1.53-.13,3.09-.13,4.71a25.38,25.38,0,0,1,3.23-6.1,12.67,12.67,0,0,1,3.52-3.36,6.38,6.38,0,0,1,3.19-1,2.53,2.53,0,0,1,2.86,2.86,35,35,0,0,1-1,6.2,31.11,31.11,0,0,0-.83,5.06c0,1.17.42,1.76,1.27,1.76a3.41,3.41,0,0,0,2.09-1.08,34.37,34.37,0,0,0,3.24-3.5,1.54,1.54,0,0,1,1.19-.61A1,1,0,0,1,705.62,377.72Zm-15.73-25.46a37.72,37.72,0,0,0-1.87,6.12,81.8,81.8,0,0,0-1.48,8.38,31,31,0,0,0,4.51-7,16.32,16.32,0,0,0,1.79-6.86,6,6,0,0,0-.31-2.16c-.21-.49-.5-.74-.88-.74S690.53,350.75,689.89,352.26Z" transform="translate(-650.82 -345.64)"/><path class="cls-1" d="M722.91,377.72a2.71,2.71,0,0,1,.33,1.45,4.05,4.05,0,0,1-.84,2.73,16,16,0,0,1-4.59,3.65,12.81,12.81,0,0,1-6.36,1.67,9.8,9.8,0,0,1-7.17-2.51,9.15,9.15,0,0,1-2.56-6.86,12.77,12.77,0,0,1,1.28-5.66,10.41,10.41,0,0,1,3.54-4.15,8.89,8.89,0,0,1,5.13-1.54,5.26,5.26,0,0,1,5.63,5.63,7.12,7.12,0,0,1-2.18,5.21c-1.45,1.45-3.91,2.61-7.37,3.46.73,1.35,2.13,2,4.18,2a9.58,9.58,0,0,0,4.51-1.39,14.71,14.71,0,0,0,4.38-3.63,1.54,1.54,0,0,1,1.19-.61A1,1,0,0,1,722.91,377.72Zm-14.74-5a8.81,8.81,0,0,0-1.12,4.58v.08a10,10,0,0,0,4.09-1.84,3.63,3.63,0,0,0,1.5-2.86,1.93,1.93,0,0,0-.47-1.35,1.61,1.61,0,0,0-1.25-.5A3.22,3.22,0,0,0,708.17,372.7Z" transform="translate(-650.82 -345.64)"/><path class="cls-1" d="M720.45,385.46a16.66,16.66,0,0,1-.69-5.63A36,36,0,0,1,721.39,369a3.36,3.36,0,0,1,1.3-1.87,4.53,4.53,0,0,1,2.53-.59,2.41,2.41,0,0,1,1.23.22.88.88,0,0,1,.35.83,16.73,16.73,0,0,1-.66,3.17c-.29,1.17-.52,2.2-.7,3.08a31.32,31.32,0,0,0-.44,3.26,24.64,24.64,0,0,1,3.26-6.16,12.57,12.57,0,0,1,3.54-3.39,6.38,6.38,0,0,1,3.19-1,2.53,2.53,0,0,1,2.86,2.86,21.35,21.35,0,0,1-.4,2.77,16.9,16.9,0,0,0-.35,2.2c0,1,.37,1.54,1.1,1.54s1.88-.65,3.17-1.94a1.67,1.67,0,0,1,1.19-.57,1,1,0,0,1,.9.51,2.39,2.39,0,0,1,.33,1.34,3.59,3.59,0,0,1-.88,2.55,12.07,12.07,0,0,1-2.88,2.18,7.21,7.21,0,0,1-3.5.9,4.84,4.84,0,0,1-3.54-1.19,4.27,4.27,0,0,1-1.21-3.21,6.56,6.56,0,0,1,.13-1.32c.06-.59.09-1,.09-1.19,0-.47-.17-.7-.49-.7s-1,.49-1.74,1.47a20.49,20.49,0,0,0-2.13,3.9,31.83,31.83,0,0,0-1.72,5.1,6.71,6.71,0,0,1-1.12,2.79,2.5,2.5,0,0,1-2,.73A2.4,2.4,0,0,1,720.45,385.46Z" transform="translate(-650.82 -345.64)"/><path class="cls-1" d="M740.46,385.46a17,17,0,0,1-.68-5.63A35.71,35.71,0,0,1,741.41,369a3.32,3.32,0,0,1,1.3-1.87,4.53,4.53,0,0,1,2.53-.59,2.44,2.44,0,0,1,1.23.22.9.9,0,0,1,.35.83,16.73,16.73,0,0,1-.66,3.17c-.29,1.17-.53,2.2-.7,3.08a28.83,28.83,0,0,0-.44,3.26,25,25,0,0,1,3.25-6.16,12.72,12.72,0,0,1,3.55-3.39,6.35,6.35,0,0,1,3.19-1,2.53,2.53,0,0,1,2.86,2.86,23.44,23.44,0,0,1-.4,2.77,16.9,16.9,0,0,0-.35,2.2c0,1,.36,1.54,1.1,1.54s1.87-.65,3.17-1.94a1.67,1.67,0,0,1,1.18-.57,1,1,0,0,1,.91.51,2.39,2.39,0,0,1,.33,1.34,3.59,3.59,0,0,1-.88,2.55,12.13,12.13,0,0,1-2.89,2.18,7.17,7.17,0,0,1-3.49.9,4.88,4.88,0,0,1-3.55-1.19,4.31,4.31,0,0,1-1.21-3.21,6.58,6.58,0,0,1,.14-1.32c.05-.59.08-1,.08-1.19,0-.47-.16-.7-.48-.7s-1,.49-1.74,1.47a20.49,20.49,0,0,0-2.13,3.9,30.87,30.87,0,0,0-1.72,5.1,6.71,6.71,0,0,1-1.12,2.79,2.51,2.51,0,0,1-2,.73A2.41,2.41,0,0,1,740.46,385.46Z" transform="translate(-650.82 -345.64)"/><path class="cls-1" d="M783.14,377.83a2.64,2.64,0,0,1,.33,1.38,3.46,3.46,0,0,1-.3,1.59,2.9,2.9,0,0,1-1,1l-8.45,5.67q-1.68,9.12-4.38,14.33T762.49,407a5,5,0,0,1-3.66-1.39,4.84,4.84,0,0,1-1.4-3.63,10.45,10.45,0,0,1,.94-4.22,19.16,19.16,0,0,1,3.52-4.95,58.26,58.26,0,0,1,7.28-6.4l.14-1c.2-1.09.44-2.64.7-4.67a11.3,11.3,0,0,1-2.46,4.82,4.66,4.66,0,0,1-3.35,1.65,3.77,3.77,0,0,1-3.23-1.83,7.8,7.8,0,0,1-1.26-4.55,38.79,38.79,0,0,1,.44-6,38.21,38.21,0,0,1,1.46-5.83,3.63,3.63,0,0,1,1.23-1.89,4.35,4.35,0,0,1,2.51-.57,2.22,2.22,0,0,1,1.34.3,1.14,1.14,0,0,1,.37.93,18.6,18.6,0,0,1-.48,2.37c-.3,1.09-.53,2.07-.71,2.95-.23,1.2-.44,2.36-.61,3.46a17.41,17.41,0,0,0-.27,2.7c0,1.12.31,1.67.93,1.67q.66,0,1.65-1.32a19.44,19.44,0,0,0,2.11-4,54.24,54.24,0,0,0,2.18-6.6,3.39,3.39,0,0,1,1.08-1.89,3.47,3.47,0,0,1,2.17-.57,2.65,2.65,0,0,1,1.41.26,1,1,0,0,1,.4.88,76.26,76.26,0,0,1-1.15,7.57l-1.14,7.08q3.39-2.55,6.6-4.66a1.94,1.94,0,0,1,1-.35A1,1,0,0,1,783.14,377.83ZM765.43,400.2a37.2,37.2,0,0,0,2.73-8.49,24.71,24.71,0,0,0-4.9,5.21,7.86,7.86,0,0,0-1.52,4.12,2.41,2.41,0,0,0,.28,1.23,1,1,0,0,0,1,.48Q764.07,402.75,765.43,400.2Z" transform="translate(-650.82 -345.64)"/><path class="cls-1" d="M795.35,385.13a7.5,7.5,0,0,1-3.52-6.8,6.72,6.72,0,0,1,.84-3.69,2.76,2.76,0,0,1,2.46-1.28,3,3,0,0,1,1.94.62,2,2,0,0,1,.75,1.58,7.71,7.71,0,0,1-.14,1.54,5.48,5.48,0,0,1-.06.62,6.74,6.74,0,0,0-.07.92,3.14,3.14,0,0,0,2,2.95,13.29,13.29,0,0,0,5.62,1,10.82,10.82,0,0,0,5.85-1.35,4.22,4.22,0,0,0,2.11-3.76,3.71,3.71,0,0,0-1-2.57,8,8,0,0,0-2.42-1.81c-1-.48-2.33-1.07-4.09-1.78a44.21,44.21,0,0,1-5.52-2.51,11.5,11.5,0,0,1-3.66-3.23,8.3,8.3,0,0,1-1.51-5.08,9.69,9.69,0,0,1,1.69-5.63,10.93,10.93,0,0,1,4.89-3.83,18.91,18.91,0,0,1,7.5-1.37,17.62,17.62,0,0,1,5.89.95,9.54,9.54,0,0,1,4.29,2.88,7.21,7.21,0,0,1,1.61,4.75,8.28,8.28,0,0,1-.84,4.18,2.69,2.69,0,0,1-2.46,1.41,2.71,2.71,0,0,1-1.91-.7,2.19,2.19,0,0,1-.78-1.67,8.16,8.16,0,0,1,.14-1.54c.08-.88.13-1.44.13-1.68a3,3,0,0,0-1.81-2.81,9.31,9.31,0,0,0-4.48-1,10.09,10.09,0,0,0-5.79,1.39,4.47,4.47,0,0,0-2,3.89,4.21,4.21,0,0,0,1,2.86,8.6,8.6,0,0,0,2.58,2q1.53.79,4.31,1.89a54,54,0,0,1,5.37,2.47,10.61,10.61,0,0,1,3.45,3,7.51,7.51,0,0,1,1.43,4.66,9.2,9.2,0,0,1-3.94,8q-3.93,2.79-10.54,2.79Q798.87,387.35,795.35,385.13Z" transform="translate(-650.82 -345.64)"/><path class="cls-1" d="M856,373.58a1.23,1.23,0,0,1,1,.44,1.87,1.87,0,0,1,.35,1.19,3.73,3.73,0,0,1-.53,2.13,2.92,2.92,0,0,1-1.58,1.12,13.84,13.84,0,0,1-4.31.66,12.46,12.46,0,0,1-3.66-.52q-1.28,2.07-2.81,4.26a15.39,15.39,0,0,1-3,3.44,4.68,4.68,0,0,1-2.83.92,3,3,0,0,1-2.67-1.36,9.79,9.79,0,0,1-1.12-4.49l-.22-3.21a42.34,42.34,0,0,1-2.44,5.63,7.92,7.92,0,0,1-2.16,2.68,4.32,4.32,0,0,1-2.53.75,3.31,3.31,0,0,1-2.83-1.41,8.86,8.86,0,0,1-1.3-4.44q-.52-6.17-.53-10.78v-1.54a2.53,2.53,0,0,1,.79-2,3.69,3.69,0,0,1,2.25-.57,2.42,2.42,0,0,1,1.69.51,2.2,2.2,0,0,1,.55,1.69q0,5.07.62,13.16,3-6.3,5.5-13.11a3.63,3.63,0,0,1,1.16-1.79,3,3,0,0,1,1.65-.46,2.21,2.21,0,0,1,1.65.49,2.45,2.45,0,0,1,.46,1.71q0,5.07.62,13.16,2.64-3.92,4-6.25a6.53,6.53,0,0,1-.66-3,6.78,6.78,0,0,1,.66-2.9,6.13,6.13,0,0,1,1.8-2.29,4.21,4.21,0,0,1,2.6-.88,2.63,2.63,0,0,1,2.07.9A3.87,3.87,0,0,1,851,370a12,12,0,0,1-1.06,4.53,29,29,0,0,0,4.45-.66l1.18-.22A2.15,2.15,0,0,1,856,373.58Z" transform="translate(-650.82 -345.64)"/><path class="cls-1" d="M854.58,385.24a7.89,7.89,0,0,1-1.63-5.19,14.26,14.26,0,0,1,1.63-6.67,14,14,0,0,1,4.33-5.06,9.81,9.81,0,0,1,5.74-1.91,1.71,1.71,0,0,1,1.3.37,3.23,3.23,0,0,1,.55,1.34,11,11,0,0,1,1.94-.17c1.43,0,2.15.51,2.15,1.54a33.21,33.21,0,0,1-.66,4.4,43.12,43.12,0,0,0-1,7,1.57,1.57,0,0,0,.33,1.05,1.06,1.06,0,0,0,.86.4,3.32,3.32,0,0,0,2-1.08,36.09,36.09,0,0,0,3.21-3.5,1.55,1.55,0,0,1,1.19-.61,1,1,0,0,1,.91.53,2.71,2.71,0,0,1,.33,1.45,4.05,4.05,0,0,1-.84,2.73,22.37,22.37,0,0,1-3.83,3.78,6.49,6.49,0,0,1-3.91,1.54,4.13,4.13,0,0,1-2.67-1,6.05,6.05,0,0,1-1.82-2.71q-2.3,3.71-5.77,3.7A5.33,5.33,0,0,1,854.58,385.24Zm7.79-3.61a7.42,7.42,0,0,0,1.27-3l1.63-8.1a5.31,5.31,0,0,0-3.41,1.39,9.33,9.33,0,0,0-2.49,3.54,12,12,0,0,0-.92,4.66,3.11,3.11,0,0,0,.55,2,1.87,1.87,0,0,0,1.52.66A2.42,2.42,0,0,0,862.37,381.63Z" transform="translate(-650.82 -345.64)"/><path class="cls-1" d="M898.6,377.72a2.71,2.71,0,0,1,.33,1.45,4.05,4.05,0,0,1-.84,2.73,19.37,19.37,0,0,1-4.07,3.82,8.51,8.51,0,0,1-4.95,1.5,4.79,4.79,0,0,1-3.78-1.67,9.83,9.83,0,0,1-5.24,1.67,53.68,53.68,0,0,1-2.59,14.19q-2,5.7-5.94,5.7a3.92,3.92,0,0,1-3.52-1.72,8.43,8.43,0,0,1-1.15-4.75,31.39,31.39,0,0,1,2-10.05A68.34,68.34,0,0,1,875,377.94c0-4.29,0-7.26-.09-8.94a2.25,2.25,0,0,1,1-2,4.47,4.47,0,0,1,2.64-.75,2,2,0,0,1,1.34.38,2.07,2.07,0,0,1,.47,1.47c0,.73,0,1.28,0,1.63a10,10,0,0,1,2.77-2.53,5.87,5.87,0,0,1,2.91-.77,4.89,4.89,0,0,1,4,2,8.14,8.14,0,0,1,1.56,5.19,13.88,13.88,0,0,1-.74,4.53,14.94,14.94,0,0,1-2.07,4,6,6,0,0,0,1.54.26,4.34,4.34,0,0,0,2.77-1.06,26,26,0,0,0,3.39-3.52,1.54,1.54,0,0,1,1.19-.61A1,1,0,0,1,898.6,377.72Zm-24.75,19.91a108,108,0,0,0,1-12.87,64.3,64.3,0,0,0-3,8.4,26.39,26.39,0,0,0-1.1,6.73,5.55,5.55,0,0,0,.33,2.16c.22.5.48.75.77.75C872.66,402.8,873.32,401.07,873.85,397.63Zm9.35-16.37a10.29,10.29,0,0,0,2.13-3.43,11.78,11.78,0,0,0,.79-4.29,3.28,3.28,0,0,0-.52-2,1.7,1.7,0,0,0-1.41-.68c-1.06,0-2.33,1.12-3.83,3.35,0,1.29,0,3.18,0,5.67,0,1.35,0,2.39-.05,3.13A5.92,5.92,0,0,0,883.2,381.26Z" transform="translate(-650.82 -345.64)"/></svg>