<?xml version="1.0" encoding="utf-8"?>
<!-- Generator: Adobe Illustrator 22.0.1, SVG Export Plug-In . SVG Version: 6.00 Build 0)  -->
<svg version="1.1" id="Layer_1" xmlns="http://www.w3.org/2000/svg" xmlns:xlink="http://www.w3.org/1999/xlink" x="0px" y="0px"
	 viewBox="0 0 165 43" style="enable-background:new 0 0 165 43;" xml:space="preserve">
<style type="text/css">
	.st0{fill:url(#SVGID_1_);}
</style>
<linearGradient id="SVGID_1_" gradientUnits="userSpaceOnUse" x1="0.9" y1="21.85" x2="164.2" y2="21.85">
	<stop  offset="0" style="stop-color:#DB1935"/>
	<stop  offset="0.4984" style="stop-color:#B735B4"/>
	<stop  offset="1" style="stop-color:#7F16DB"/>
</linearGradient>
<path class="st0" d="M12.6,29.1c-2.4,0-4.4-0.4-6.2-1.3s-3.1-2.1-4.1-3.7c-0.9-1.6-1.4-3.5-1.4-5.6c0-2.9,0.6-5.5,1.6-7.8
	c1.1-2.3,2.6-4,4.5-5.3s4-1.9,6.3-1.9c2.2,0,3.8,0.6,4.9,1.7C19.5,6.3,20,7.8,20,9.6c0,1.2-0.2,2.2-0.7,2.9c-0.4,0.7-1,1.1-1.8,1.1
	c-0.6,0-1-0.1-1.3-0.4c-0.3-0.3-0.5-0.6-0.5-1.1c0-0.2,0-0.5,0.1-1c0.2-0.5,0.2-1,0.2-1.4C16,7.9,15,7,13.1,7
	c-1.3,0-2.6,0.4-3.8,1.3s-2.2,2.1-2.9,3.8S5.3,15.7,5.3,18c0,2.4,0.7,4.3,2,5.6c1.3,1.3,3.3,1.9,5.9,1.9c1.3,0,2.6-0.2,3.9-0.5
	s2.8-0.9,4.4-1.5c0.3-0.1,0.6-0.2,0.8-0.2c0.3,0,0.6,0.1,0.7,0.4c0.2,0.2,0.2,0.6,0.2,0.9c0,1.2-0.7,2.1-2,2.7
	c-1.4,0.6-2.9,1.1-4.4,1.4C15.4,29,14,29.1,12.6,29.1z M37.7,22.3c0.3,0,0.5,0.1,0.6,0.4c0.2,0.2,0.2,0.6,0.2,1
	c0,0.8-0.2,1.4-0.6,1.9c-0.9,1.1-1.9,1.9-2.8,2.6c-1,0.7-2.1,1-3.3,1c-1,0-1.8-0.3-2.3-0.9s-0.8-1.5-0.8-2.6c0-0.6,0.1-1.6,0.4-3
	c0.3-1.3,0.4-2.1,0.4-2.6c0-0.3-0.1-0.5-0.3-0.5c-0.3,0-0.6,0.3-1.1,1s-1,1.5-1.4,2.6s-0.9,2.3-1.2,3.5c-0.4,1.6-1.3,2.4-2.8,2.4
	c-0.6,0-1-0.2-1.2-0.6s-0.3-1.2-0.3-2.3c0-0.6,0-1.1,0-1.5v-2.4c0-3.1,0.3-6.3,0.9-9.6s1.6-6.1,2.8-8.4c1.2-2.3,2.7-3.4,4.4-3.4
	c0.9,0,1.7,0.4,2.2,1.2c0.6,0.8,0.9,1.8,0.9,3.1c0,2-0.6,4.1-1.8,6.3c-1.2,2.2-3.1,4.7-5.8,7.6c-0.1,1-0.1,2.1-0.1,3.2
	c0.7-1.7,1.4-3.1,2.2-4.1c0.8-1.1,1.6-1.9,2.4-2.3c0.8-0.5,1.5-0.7,2.2-0.7c1.3,0,2,0.6,2,1.9c0,0.8-0.2,2.2-0.7,4.2
	c-0.4,1.7-0.6,2.9-0.6,3.4c0,0.8,0.3,1.2,0.9,1.2c0.4,0,0.9-0.2,1.4-0.7c0.6-0.5,1.3-1.3,2.2-2.4C37.1,22.5,37.4,22.3,37.7,22.3z
	 M28.7,3.8c-0.4,0-0.8,0.5-1.2,1.6c-0.4,1-0.9,2.4-1.3,4.2c-0.4,1.7-0.7,3.6-1,5.7c1.2-1.5,2.3-3.1,3.1-4.8c0.8-1.7,1.2-3.3,1.2-4.7
	c0-0.6-0.1-1.1-0.2-1.5S29,3.8,28.7,3.8z M49.4,22.3c0.3,0,0.5,0.1,0.6,0.4c0.2,0.2,0.2,0.6,0.2,1c0,0.8-0.2,1.4-0.6,1.9
	c-0.7,0.9-1.8,1.7-3.2,2.5c-1.3,0.8-2.8,1.1-4.3,1.1c-2.1,0-3.7-0.6-4.9-1.7s-1.7-2.7-1.7-4.7c0-1.4,0.3-2.7,0.9-3.8
	c0.6-1.2,1.4-2.1,2.4-2.9c1-0.7,2.2-1,3.5-1c1.2,0,2.1,0.3,2.8,1c0.7,0.7,1,1.6,1,2.8c0,1.4-0.5,2.6-1.5,3.6s-2.7,1.8-5,2.3
	c0.5,0.9,1.5,1.4,2.9,1.4c0.9,0,1.9-0.3,3.1-0.9c1.2-0.6,2.2-1.5,3-2.5C48.9,22.5,49.1,22.3,49.4,22.3z M41.9,18
	c-0.7,0-1.4,0.4-1.9,1.3s-0.8,1.9-0.8,3.1v0.1c1.2-0.3,2.1-0.7,2.8-1.3s1-1.2,1-2c0-0.4-0.1-0.7-0.3-0.9C42.5,18.1,42.2,18,41.9,18z
	 M50,29.1c-0.8,0-1.3-0.4-1.6-1.2c-0.3-0.8-0.4-2.1-0.4-3.8c0-2.6,0.4-5.1,1.1-7.4c0.2-0.6,0.5-1,0.9-1.3s1-0.4,1.7-0.4
	c0.4,0,0.7,0,0.8,0.1s0.2,0.3,0.2,0.6s-0.2,1-0.5,2.2c-0.2,0.8-0.4,1.5-0.5,2.1s-0.2,1.3-0.3,2.2c0.7-1.7,1.4-3.1,2.2-4.2
	s1.6-1.9,2.4-2.3c0.8-0.5,1.5-0.7,2.2-0.7c1.3,0,2,0.6,2,1.9c0,0.3-0.1,0.9-0.3,1.9c-0.2,0.8-0.2,1.3-0.2,1.5c0,0.7,0.2,1,0.8,1
	s1.3-0.4,2.2-1.3c0.3-0.3,0.5-0.4,0.8-0.4s0.5,0.1,0.6,0.4c0.2,0.2,0.2,0.5,0.2,0.9c0,0.7-0.2,1.3-0.6,1.7c-0.6,0.6-1.2,1.1-2,1.5
	c-0.7,0.4-1.5,0.6-2.4,0.6c-1.1,0-1.9-0.3-2.4-0.8s-0.8-1.3-0.8-2.2c0-0.3,0-0.6,0.1-0.9c0-0.4,0.1-0.7,0.1-0.8
	c0-0.3-0.1-0.5-0.3-0.5c-0.3,0-0.7,0.3-1.2,1s-1,1.5-1.4,2.6s-0.9,2.3-1.2,3.5c-0.2,0.9-0.5,1.6-0.8,1.9C51,29,50.6,29.1,50,29.1z
	 M63.6,29.1c-0.8,0-1.3-0.4-1.6-1.2c-0.3-0.8-0.5-2.1-0.5-3.8c0-2.6,0.4-5.1,1.1-7.4c0.2-0.6,0.5-1,0.9-1.3s1-0.4,1.7-0.4
	c0.4,0,0.7,0,0.8,0.1c0.2,0.1,0.2,0.3,0.2,0.6s-0.2,1-0.4,2.2c-0.2,0.8-0.4,1.5-0.5,2.1s-0.2,1.3-0.3,2.2c0.7-1.7,1.4-3.1,2.2-4.2
	c0.8-1.1,1.6-1.9,2.4-2.3c0.8-0.5,1.5-0.7,2.2-0.7c1.3,0,1.9,0.6,1.9,1.9c0,0.3-0.1,0.9-0.3,1.9c-0.2,0.8-0.2,1.3-0.2,1.5
	c0,0.7,0.2,1,0.8,1c0.6,0,1.3-0.4,2.2-1.3c0.3-0.3,0.5-0.4,0.8-0.4s0.5,0.1,0.6,0.4c0.2,0.2,0.2,0.5,0.2,0.9c0,0.7-0.2,1.3-0.6,1.7
	c-0.6,0.6-1.2,1.1-2,1.5c-0.7,0.4-1.5,0.6-2.4,0.6c-1.1,0-1.9-0.3-2.4-0.8s-0.8-1.3-0.8-2.2c0-0.3,0-0.6,0.1-0.9
	c0-0.4,0.1-0.7,0.1-0.8c0-0.3-0.1-0.5-0.3-0.5c-0.3,0-0.7,0.3-1.2,1s-1,1.5-1.4,2.6c-0.5,1.1-0.9,2.3-1.2,3.5
	c-0.2,0.9-0.5,1.6-0.8,1.9C64.7,29,64.2,29.1,63.6,29.1z M85.6,15c0.5,0,0.8,0.1,1,0.2s0.3,0.3,0.3,0.6c0,0.5-0.3,2.2-0.8,5.1
	c-0.5,2.8-0.7,4.5-0.8,5c-0.7,5.1-1.8,9.2-3.1,12.2c-1.3,3-3,4.5-5.2,4.5c-1,0-1.9-0.3-2.5-1c-0.6-0.6-1-1.4-1-2.5
	c0-0.9,0.2-1.9,0.6-2.9s1.2-2.1,2.4-3.4c1.2-1.3,2.8-2.7,5-4.3l0.1-0.7c0.1-0.7,0.3-1.8,0.5-3.2c-0.4,1.4-1,2.5-1.7,3.3
	c-0.7,0.7-1.5,1.1-2.3,1.1c-0.9,0-1.6-0.4-2.2-1.2c-0.6-0.8-0.8-1.9-0.8-3.1c0-1.5,0.1-2.9,0.3-4.1c0.2-1.3,0.5-2.6,1-4
	c0.2-0.6,0.5-1,0.8-1.3s1-0.3,1.8-0.3c0.4,0,0.7,0.1,0.9,0.2c0.2,0.1,0.3,0.4,0.3,0.6c0,0.2-0.1,0.7-0.3,1.6c-0.2,0.7-0.4,1.4-0.5,2
	c-0.2,0.8-0.3,1.6-0.4,2.4c-0.1,0.7-0.2,1.3-0.2,1.8c0,0.8,0.2,1.1,0.6,1.1c0.3,0,0.7-0.3,1.1-0.9c0.5-0.6,0.9-1.5,1.4-2.7
	s1-2.7,1.5-4.5c0.2-0.6,0.4-1,0.7-1.3C84.5,15.1,85,15,85.6,15z M77.4,39.7c0.5,0,1.1-0.6,1.7-1.7c0.6-1.2,1.2-3.1,1.9-5.8
	c-1.5,1.3-2.7,2.5-3.4,3.5c-0.7,1.1-1,2-1,2.8c0,0.3,0.1,0.6,0.2,0.8C76.8,39.6,77.1,39.7,77.4,39.7z M104.9,29.2
	c-2.7,0-4.8-0.5-6.4-1.5s-2.4-2.6-2.4-4.6c0-1.1,0.2-1.9,0.6-2.5s0.9-0.9,1.7-0.9c0.5,0,1,0.1,1.3,0.4s0.5,0.6,0.5,1.1
	c0,0.4,0,0.8-0.1,1c0,0.1,0,0.2-0.1,0.4c0,0.2,0,0.4,0,0.6c0,0.9,0.4,1.6,1.3,2s2.2,0.7,3.8,0.7c1.7,0,3-0.3,4-0.9s1.4-1.5,1.4-2.6
	c0-0.7-0.2-1.3-0.7-1.7c-0.4-0.5-1-0.9-1.7-1.2c-0.7-0.3-1.6-0.8-2.8-1.2c-1.5-0.6-2.8-1.2-3.8-1.7s-1.8-1.3-2.5-2.2s-1-2.1-1-3.5
	s0.4-2.7,1.1-3.8c0.8-1.1,1.9-2,3.3-2.6c1.5-0.6,3.2-0.9,5.1-0.9c1.5,0,2.8,0.2,4,0.7c1.2,0.4,2.2,1.1,2.9,1.9
	c0.7,0.9,1.1,2,1.1,3.2c0,1.3-0.2,2.2-0.6,2.8s-0.9,1-1.7,1c-0.5,0-1-0.2-1.3-0.5s-0.5-0.7-0.5-1.1c0-0.4,0-0.7,0.1-1
	c0.1-0.6,0.1-1,0.1-1.1c0-0.8-0.4-1.5-1.2-1.9s-1.8-0.7-3.1-0.7c-1.7,0-3,0.3-4,1c-0.9,0.6-1.3,1.5-1.3,2.6c0,0.8,0.2,1.4,0.7,2
	c0.5,0.5,1.1,1,1.8,1.3c0.7,0.4,1.7,0.8,2.9,1.3c1.5,0.6,2.7,1.2,3.7,1.7s1.7,1.2,2.3,2c0.7,0.9,1,1.9,1,3.2c0,2.4-0.9,4.2-2.7,5.5
	C110.3,28.6,107.9,29.2,104.9,29.2z M139.6,19.9c0.1,0,0.2,0,0.3,0c0.3,0,0.5,0.1,0.7,0.3c0.2,0.2,0.2,0.5,0.2,0.8
	c0,0.6-0.1,1.1-0.4,1.5c-0.2,0.3-0.6,0.6-1.1,0.8c-0.9,0.3-1.9,0.4-2.9,0.4c-0.9,0-1.7-0.1-2.5-0.4c-0.6,0.9-1.2,1.9-1.9,2.9
	c-0.8,1.1-1.5,1.9-2.1,2.3s-1.2,0.6-1.9,0.6c-0.8,0-1.4-0.3-1.8-0.9s-0.7-1.6-0.8-3.1l-0.2-2.2c-0.6,1.7-1.2,3-1.7,3.8
	c-0.5,0.9-1,1.5-1.5,1.8s-1.1,0.5-1.7,0.5c-0.8,0-1.5-0.3-1.9-1c-0.5-0.6-0.8-1.6-0.9-3c-0.2-2.8-0.4-5.2-0.4-7.4v-1
	c0-0.7,0.2-1.1,0.5-1.4c0.3-0.3,0.8-0.4,1.5-0.4c0.5,0,0.9,0.1,1.1,0.4c0.3,0.2,0.4,0.6,0.4,1.1c0,2.3,0.1,5.3,0.4,9
	c1.4-2.9,2.6-5.8,3.8-8.9c0.2-0.6,0.5-1,0.8-1.2s0.7-0.3,1.1-0.3c0.5,0,0.9,0.1,1.1,0.3s0.3,0.6,0.3,1.2c0,2.3,0.1,5.3,0.4,9
	c1.2-1.8,2.1-3.2,2.7-4.3c-0.3-0.6-0.4-1.3-0.4-2.1c0-0.7,0.2-1.3,0.4-2c0.3-0.6,0.7-1.2,1.2-1.6c0.5-0.4,1.1-0.6,1.8-0.6
	c0.6,0,1.1,0.2,1.4,0.6c0.4,0.4,0.5,1,0.5,1.8c0,0.9-0.2,1.9-0.7,3.1c0.8,0,1.8-0.2,3-0.4L139.6,19.9z M141.9,29.1
	c-1.2,0-2.2-0.4-3-1.4c-0.7-0.9-1.1-2.1-1.1-3.5c0-1.6,0.4-3.1,1.1-4.5c0.7-1.4,1.7-2.6,2.9-3.4c1.2-0.9,2.6-1.3,3.9-1.3
	c0.4,0,0.7,0.1,0.9,0.3s0.3,0.5,0.4,0.9c0.4-0.1,0.9-0.1,1.3-0.1c1,0,1.5,0.4,1.5,1c0,0.4-0.2,1.4-0.5,3c-0.5,2.3-0.7,3.9-0.7,4.8
	c0,0.3,0.1,0.5,0.2,0.7c0.2,0.2,0.4,0.3,0.6,0.3c0.4,0,0.8-0.2,1.4-0.7c0.5-0.5,1.3-1.3,2.2-2.4c0.2-0.3,0.5-0.4,0.8-0.4
	s0.5,0.1,0.6,0.4c0.2,0.2,0.2,0.6,0.2,1c0,0.8-0.2,1.4-0.6,1.9c-0.8,1-1.7,1.9-2.6,2.6c-0.9,0.7-1.8,1-2.7,1c-0.7,0-1.3-0.2-1.8-0.7
	s-0.9-1.1-1.2-1.9C144.8,28.3,143.5,29.1,141.9,29.1z M143,26.1c0.4,0,0.9-0.3,1.3-0.8c0.4-0.5,0.7-1.2,0.9-2.1l1.1-5.5
	c-0.8,0-1.6,0.3-2.3,1c-0.7,0.6-1.3,1.4-1.7,2.4s-0.6,2.1-0.6,3.2c0,0.6,0.1,1.1,0.4,1.4C142.2,26,142.6,26.1,143,26.1z M164.2,19.9
	c0,1.6-0.4,3.1-1.1,4.5c-0.7,1.4-1.7,2.5-2.9,3.4s-2.5,1.3-3.9,1.4c-0.3,3.9-0.8,7.1-1.8,9.7c-0.9,2.6-2.3,3.9-4.1,3.9
	c-1.1,0-1.9-0.4-2.4-1.2s-0.8-1.9-0.8-3.2c0-2,0.5-4.2,1.4-6.9c0.9-2.6,2.3-5.5,4.2-8.6c0-2.9,0-4.9-0.1-6.1c0-0.6,0.2-1,0.7-1.4
	c0.5-0.3,1.1-0.5,1.8-0.5c0.4,0,0.7,0.1,0.9,0.3s0.3,0.5,0.3,1c0,0.5,0,0.9,0,1.1c0.6-0.8,1.3-1.4,1.9-1.7c0.6-0.4,1.3-0.5,2-0.5
	c1.1,0,2,0.4,2.7,1.3C163.8,17.2,164.2,18.4,164.2,19.9z M156.5,26.3c0.7-0.2,1.4-0.6,2-1.2s1.1-1.4,1.5-2.3s0.5-1.9,0.5-2.9
	c0-0.6-0.1-1-0.4-1.4c-0.2-0.3-0.6-0.5-1-0.5c-0.7,0-1.6,0.8-2.6,2.3c0,0.9,0,2.2,0,3.9C156.5,25.1,156.5,25.8,156.5,26.3z
	 M150.7,39.8c0.5,0,1-1.2,1.3-3.5c0.4-2.3,0.6-5.3,0.7-8.8c-0.9,2-1.5,3.9-2,5.7c-0.5,1.8-0.8,3.3-0.8,4.6c0,0.6,0.1,1.1,0.2,1.5
	C150.4,39.6,150.5,39.8,150.7,39.8z"/>
</svg>
