<svg width="165" height="43" viewBox="0 0 165 43" fill="none" xmlns="http://www.w3.org/2000/svg">
<path d="M12.59 29.15C10.21 29.15 8.14 28.72 6.38 27.86C4.62 26.98 3.27 25.74 2.33 24.14C1.39 22.54 0.92 20.68 0.92 18.56C0.92 15.62 1.47 13.01 2.57 10.73C3.69 8.45 5.2 6.69 7.1 5.45C9 4.19 11.11 3.56 13.43 3.56C15.59 3.56 17.23 4.12 18.35 5.24C19.47 6.34 20.03 7.8 20.03 9.62C20.03 10.84 19.81 11.82 19.37 12.56C18.95 13.3 18.34 13.67 17.54 13.67C16.98 13.67 16.54 13.54 16.22 13.28C15.9 13.02 15.74 12.64 15.74 12.14C15.74 11.96 15.78 11.63 15.86 11.15C15.98 10.55 16.04 10.07 16.04 9.71C16.04 7.89 15.07 6.98 13.13 6.98C11.81 6.98 10.55 7.41 9.35 8.27C8.15 9.13 7.18 10.4 6.44 12.08C5.7 13.74 5.33 15.72 5.33 18.02C5.33 20.42 6 22.28 7.34 23.6C8.68 24.9 10.66 25.55 13.28 25.55C14.58 25.55 15.89 25.39 17.21 25.07C18.55 24.73 20.03 24.22 21.65 23.54C21.95 23.42 22.2 23.36 22.4 23.36C22.72 23.36 22.96 23.48 23.12 23.72C23.28 23.96 23.36 24.27 23.36 24.65C23.36 25.87 22.7 26.77 21.38 27.35C19.96 27.97 18.48 28.43 16.94 28.73C15.42 29.01 13.97 29.15 12.59 29.15ZM37.6564 22.31C37.9164 22.31 38.1164 22.43 38.2564 22.67C38.4164 22.91 38.4964 23.24 38.4964 23.66C38.4964 24.46 38.3064 25.08 37.9264 25.52C37.0064 26.58 36.0564 27.45 35.0764 28.13C34.1164 28.81 33.0164 29.15 31.7764 29.15C30.7564 29.15 29.9864 28.86 29.4664 28.28C28.9464 27.68 28.6864 26.82 28.6864 25.7C28.6864 25.14 28.8264 24.14 29.1064 22.7C29.3664 21.44 29.4964 20.57 29.4964 20.09C29.4964 19.77 29.3864 19.61 29.1664 19.61C28.9064 19.61 28.5364 19.95 28.0564 20.63C27.5764 21.29 27.0964 22.17 26.6164 23.27C26.1364 24.37 25.7464 25.53 25.4464 26.75C25.0664 28.35 24.1264 29.15 22.6264 29.15C22.0264 29.15 21.6264 28.94 21.4264 28.52C21.2464 28.08 21.1564 27.3 21.1564 26.18C21.1564 25.54 21.1664 25.03 21.1864 24.65L21.2164 22.25C21.2164 19.17 21.5264 15.96 22.1464 12.62C22.7864 9.28 23.7164 6.48 24.9364 4.22C26.1764 1.94 27.6564 0.799998 29.3764 0.799998C30.2964 0.799998 31.0364 1.2 31.5964 2C32.1764 2.78 32.4664 3.8 32.4664 5.06C32.4664 7.08 31.8764 9.18 30.6964 11.36C29.5164 13.52 27.5964 16.05 24.9364 18.95C24.8764 19.99 24.8464 21.06 24.8464 22.16C25.5064 20.46 26.2364 19.08 27.0364 18.02C27.8564 16.94 28.6564 16.17 29.4364 15.71C30.2364 15.25 30.9664 15.02 31.6264 15.02C32.9264 15.02 33.5764 15.67 33.5764 16.97C33.5764 17.75 33.3564 19.16 32.9164 21.2C32.5364 22.94 32.3464 24.09 32.3464 24.65C32.3464 25.45 32.6364 25.85 33.2164 25.85C33.6164 25.85 34.0864 25.61 34.6264 25.13C35.1864 24.63 35.9264 23.83 36.8464 22.73C37.0864 22.45 37.3564 22.31 37.6564 22.31ZM28.7464 3.77C28.3864 3.77 27.9864 4.29 27.5464 5.33C27.1064 6.35 26.6764 7.74 26.2564 9.5C25.8564 11.24 25.5264 13.14 25.2664 15.2C26.5064 13.74 27.5264 12.15 28.3264 10.43C29.1464 8.71 29.5564 7.15 29.5564 5.75C29.5564 5.11 29.4864 4.62 29.3464 4.28C29.2064 3.94 29.0064 3.77 28.7464 3.77ZM49.445 22.31C49.705 22.31 49.905 22.43 50.045 22.67C50.205 22.91 50.285 23.24 50.285 23.66C50.285 24.46 50.095 25.08 49.715 25.52C48.975 26.42 47.925 27.25 46.565 28.01C45.225 28.77 43.785 29.15 42.245 29.15C40.145 29.15 38.515 28.58 37.355 27.44C36.195 26.3 35.615 24.74 35.615 22.76C35.615 21.38 35.905 20.1 36.485 18.92C37.065 17.72 37.865 16.77 38.885 16.07C39.925 15.37 41.095 15.02 42.395 15.02C43.555 15.02 44.485 15.37 45.185 16.07C45.885 16.75 46.235 17.68 46.235 18.86C46.235 20.24 45.735 21.43 44.735 22.43C43.755 23.41 42.085 24.19 39.725 24.77C40.225 25.69 41.175 26.15 42.575 26.15C43.475 26.15 44.495 25.84 45.635 25.22C46.795 24.58 47.795 23.75 48.635 22.73C48.875 22.45 49.145 22.31 49.445 22.31ZM41.885 17.96C41.145 17.96 40.515 18.39 39.995 19.25C39.495 20.11 39.245 21.15 39.245 22.37V22.43C40.425 22.15 41.355 21.73 42.035 21.17C42.715 20.61 43.055 19.96 43.055 19.22C43.055 18.84 42.945 18.54 42.725 18.32C42.525 18.08 42.245 17.96 41.885 17.96ZM49.9723 29.15C49.2123 29.15 48.6723 28.75 48.3523 27.95C48.0523 27.15 47.9023 25.87 47.9023 24.11C47.9023 21.51 48.2723 19.04 49.0123 16.7C49.1923 16.12 49.4823 15.7 49.8823 15.44C50.3023 15.16 50.8823 15.02 51.6223 15.02C52.0223 15.02 52.3023 15.07 52.4623 15.17C52.6223 15.27 52.7023 15.46 52.7023 15.74C52.7023 16.06 52.5523 16.78 52.2523 17.9C52.0523 18.7 51.8923 19.4 51.7723 20C51.6523 20.6 51.5523 21.34 51.4723 22.22C52.1323 20.5 52.8723 19.1 53.6923 18.02C54.5123 16.94 55.3123 16.17 56.0923 15.71C56.8923 15.25 57.6223 15.02 58.2823 15.02C59.5823 15.02 60.2323 15.67 60.2323 16.97C60.2323 17.23 60.1423 17.86 59.9623 18.86C59.8023 19.66 59.7223 20.16 59.7223 20.36C59.7223 21.06 59.9723 21.41 60.4723 21.41C61.0323 21.41 61.7523 20.97 62.6323 20.09C62.8923 19.83 63.1623 19.7 63.4423 19.7C63.7023 19.7 63.9023 19.82 64.0423 20.06C64.2023 20.28 64.2823 20.58 64.2823 20.96C64.2823 21.7 64.0823 22.28 63.6823 22.7C63.1223 23.28 62.4623 23.78 61.7023 24.2C60.9623 24.6 60.1723 24.8 59.3323 24.8C58.2723 24.8 57.4623 24.53 56.9023 23.99C56.3623 23.45 56.0923 22.72 56.0923 21.8C56.0923 21.5 56.1223 21.2 56.1823 20.9C56.2223 20.5 56.2423 20.23 56.2423 20.09C56.2423 19.77 56.1323 19.61 55.9123 19.61C55.6123 19.61 55.2123 19.95 54.7123 20.63C54.2323 21.29 53.7523 22.17 53.2723 23.27C52.7923 24.37 52.4023 25.53 52.1023 26.75C51.8823 27.69 51.6223 28.33 51.3223 28.67C51.0423 28.99 50.5923 29.15 49.9723 29.15ZM63.6247 29.15C62.8647 29.15 62.3247 28.75 62.0047 27.95C61.7047 27.15 61.5547 25.87 61.5547 24.11C61.5547 21.51 61.9247 19.04 62.6647 16.7C62.8447 16.12 63.1347 15.7 63.5347 15.44C63.9547 15.16 64.5347 15.02 65.2747 15.02C65.6747 15.02 65.9547 15.07 66.1147 15.17C66.2747 15.27 66.3547 15.46 66.3547 15.74C66.3547 16.06 66.2047 16.78 65.9047 17.9C65.7047 18.7 65.5447 19.4 65.4247 20C65.3047 20.6 65.2047 21.34 65.1247 22.22C65.7847 20.5 66.5247 19.1 67.3447 18.02C68.1647 16.94 68.9647 16.17 69.7447 15.71C70.5447 15.25 71.2747 15.02 71.9347 15.02C73.2347 15.02 73.8847 15.67 73.8847 16.97C73.8847 17.23 73.7947 17.86 73.6147 18.86C73.4547 19.66 73.3747 20.16 73.3747 20.36C73.3747 21.06 73.6247 21.41 74.1247 21.41C74.6847 21.41 75.4047 20.97 76.2847 20.09C76.5447 19.83 76.8147 19.7 77.0947 19.7C77.3547 19.7 77.5547 19.82 77.6947 20.06C77.8547 20.28 77.9347 20.58 77.9347 20.96C77.9347 21.7 77.7347 22.28 77.3347 22.7C76.7747 23.28 76.1147 23.78 75.3547 24.2C74.6147 24.6 73.8247 24.8 72.9847 24.8C71.9247 24.8 71.1147 24.53 70.5547 23.99C70.0147 23.45 69.7447 22.72 69.7447 21.8C69.7447 21.5 69.7747 21.2 69.8347 20.9C69.8747 20.5 69.8947 20.23 69.8947 20.09C69.8947 19.77 69.7847 19.61 69.5647 19.61C69.2647 19.61 68.8647 19.95 68.3647 20.63C67.8847 21.29 67.4047 22.17 66.9247 23.27C66.4447 24.37 66.0547 25.53 65.7547 26.75C65.5347 27.69 65.2747 28.33 64.9747 28.67C64.6947 28.99 64.2447 29.15 63.6247 29.15ZM85.647 15.02C86.107 15.02 86.427 15.08 86.607 15.2C86.787 15.32 86.877 15.52 86.877 15.8C86.877 16.28 86.617 17.99 86.097 20.93C85.637 23.75 85.367 25.42 85.287 25.94C84.547 31.08 83.527 35.15 82.227 38.15C80.927 41.15 79.197 42.65 77.037 42.65C76.017 42.65 75.187 42.33 74.547 41.69C73.907 41.07 73.587 40.25 73.587 39.23C73.587 38.29 73.797 37.33 74.217 36.35C74.657 35.37 75.457 34.24 76.617 32.96C77.797 31.7 79.457 30.25 81.597 28.61L81.687 27.92C81.827 27.18 81.987 26.12 82.167 24.74C81.767 26.18 81.207 27.28 80.487 28.04C79.767 28.78 79.007 29.15 78.207 29.15C77.307 29.15 76.567 28.74 75.987 27.92C75.427 27.08 75.147 26.04 75.147 24.8C75.147 23.3 75.247 21.93 75.447 20.69C75.647 19.43 75.977 18.1 76.437 16.7C76.637 16.1 76.917 15.67 77.277 15.41C77.637 15.15 78.207 15.02 78.987 15.02C79.427 15.02 79.727 15.09 79.887 15.23C80.067 15.37 80.157 15.58 80.157 15.86C80.157 16.02 80.047 16.56 79.827 17.48C79.627 18.22 79.467 18.89 79.347 19.49C79.187 20.31 79.047 21.1 78.927 21.86C78.807 22.6 78.747 23.21 78.747 23.69C78.747 24.45 78.957 24.83 79.377 24.83C79.677 24.83 80.047 24.53 80.487 23.93C80.947 23.33 81.427 22.42 81.927 21.2C82.447 19.98 82.947 18.48 83.427 16.7C83.587 16.1 83.827 15.67 84.147 15.41C84.487 15.15 84.987 15.02 85.647 15.02ZM77.367 39.74C77.867 39.74 78.427 39.16 79.047 38C79.667 36.84 80.287 34.91 80.907 32.21C79.367 33.51 78.247 34.69 77.547 35.75C76.867 36.83 76.527 37.77 76.527 38.57C76.527 38.91 76.587 39.19 76.707 39.41C76.847 39.63 77.067 39.74 77.367 39.74ZM104.933 29.24C102.273 29.24 100.143 28.74 98.543 27.74C96.943 26.72 96.143 25.17 96.143 23.09C96.143 21.99 96.333 21.15 96.713 20.57C97.093 19.99 97.653 19.7 98.393 19.7C98.933 19.7 99.373 19.84 99.713 20.12C100.053 20.4 100.223 20.76 100.223 21.2C100.223 21.6 100.193 21.95 100.133 22.25C100.133 22.33 100.113 22.47 100.073 22.67C100.053 22.87 100.043 23.08 100.043 23.3C100.043 24.2 100.493 24.87 101.393 25.31C102.313 25.75 103.593 25.97 105.233 25.97C106.933 25.97 108.263 25.67 109.223 25.07C110.183 24.45 110.663 23.59 110.663 22.49C110.663 21.81 110.443 21.23 110.003 20.75C109.563 20.25 109.013 19.84 108.353 19.52C107.693 19.18 106.763 18.77 105.563 18.29C104.023 17.69 102.763 17.12 101.783 16.58C100.823 16.04 99.993 15.31 99.293 14.39C98.613 13.45 98.273 12.29 98.273 10.91C98.273 9.47 98.653 8.19 99.413 7.07C100.193 5.95 101.303 5.08 102.743 4.46C104.203 3.84 105.913 3.53 107.873 3.53C109.333 3.53 110.673 3.75 111.893 4.19C113.113 4.61 114.083 5.26 114.803 6.14C115.543 7.02 115.913 8.1 115.913 9.38C115.913 10.64 115.723 11.59 115.343 12.23C114.963 12.87 114.403 13.19 113.663 13.19C113.143 13.19 112.703 13.03 112.343 12.71C112.003 12.39 111.833 12.01 111.833 11.57C111.833 11.19 111.863 10.84 111.923 10.52C111.983 9.92 112.013 9.54 112.013 9.38C112.013 8.54 111.603 7.9 110.783 7.46C109.963 7.02 108.943 6.8 107.723 6.8C106.003 6.8 104.683 7.12 103.763 7.76C102.863 8.38 102.413 9.26 102.413 10.4C102.413 11.16 102.643 11.81 103.103 12.35C103.583 12.89 104.173 13.34 104.873 13.7C105.573 14.06 106.553 14.49 107.813 14.99C109.333 15.61 110.553 16.17 111.473 16.67C112.393 17.17 113.173 17.85 113.813 18.71C114.473 19.57 114.803 20.63 114.803 21.89C114.803 24.25 113.903 26.07 112.103 27.35C110.323 28.61 107.933 29.24 104.933 29.24ZM139.597 19.88C139.657 19.86 139.757 19.85 139.897 19.85C140.197 19.85 140.427 19.95 140.587 20.15C140.747 20.35 140.827 20.62 140.827 20.96C140.827 21.58 140.707 22.07 140.467 22.43C140.227 22.77 139.867 23.02 139.387 23.18C138.467 23.48 137.487 23.63 136.447 23.63C135.567 23.63 134.737 23.51 133.957 23.27C133.377 24.21 132.737 25.18 132.037 26.18C131.237 27.32 130.547 28.1 129.967 28.52C129.407 28.94 128.767 29.15 128.047 29.15C127.247 29.15 126.637 28.84 126.217 28.22C125.817 27.6 125.567 26.58 125.467 25.16L125.317 22.97C124.697 24.65 124.137 25.93 123.637 26.81C123.157 27.69 122.667 28.3 122.167 28.64C121.687 28.98 121.117 29.15 120.457 29.15C119.637 29.15 118.987 28.83 118.507 28.19C118.047 27.55 117.757 26.54 117.637 25.16C117.397 22.36 117.277 19.91 117.277 17.81V16.76C117.297 16.1 117.477 15.64 117.817 15.38C118.157 15.12 118.667 14.99 119.347 14.99C119.867 14.99 120.247 15.11 120.487 15.35C120.747 15.57 120.877 15.95 120.877 16.49C120.877 18.79 121.017 21.78 121.297 25.46C122.657 22.6 123.907 19.62 125.047 16.52C125.267 15.92 125.527 15.52 125.827 15.32C126.147 15.1 126.527 14.99 126.967 14.99C127.507 14.99 127.877 15.1 128.077 15.32C128.297 15.54 128.407 15.93 128.407 16.49C128.407 18.79 128.547 21.78 128.827 25.46C130.027 23.68 130.927 22.26 131.527 21.2C131.227 20.62 131.077 19.93 131.077 19.13C131.077 18.45 131.227 17.79 131.527 17.15C131.827 16.51 132.237 15.99 132.757 15.59C133.277 15.19 133.867 14.99 134.527 14.99C135.107 14.99 135.577 15.2 135.937 15.62C136.297 16.02 136.477 16.61 136.477 17.39C136.477 18.29 136.237 19.32 135.757 20.48C136.517 20.44 137.527 20.29 138.787 20.03L139.597 19.88ZM141.913 29.15C140.673 29.15 139.683 28.7 138.943 27.8C138.203 26.9 137.833 25.72 137.833 24.26C137.833 22.66 138.203 21.15 138.943 19.73C139.683 18.29 140.663 17.14 141.883 16.28C143.123 15.4 144.433 14.96 145.813 14.96C146.253 14.96 146.543 15.05 146.683 15.23C146.843 15.39 146.973 15.69 147.073 16.13C147.493 16.05 147.933 16.01 148.393 16.01C149.373 16.01 149.863 16.36 149.863 17.06C149.863 17.48 149.713 18.48 149.413 20.06C148.953 22.36 148.723 23.96 148.723 24.86C148.723 25.16 148.793 25.4 148.933 25.58C149.093 25.76 149.293 25.85 149.533 25.85C149.913 25.85 150.373 25.61 150.913 25.13C151.453 24.63 152.183 23.83 153.103 22.73C153.343 22.45 153.613 22.31 153.913 22.31C154.173 22.31 154.373 22.43 154.513 22.67C154.673 22.91 154.753 23.24 154.753 23.66C154.753 24.46 154.563 25.08 154.183 25.52C153.363 26.54 152.493 27.4 151.573 28.1C150.653 28.8 149.763 29.15 148.903 29.15C148.243 29.15 147.633 28.93 147.073 28.49C146.533 28.03 146.123 27.41 145.843 26.63C144.803 28.31 143.493 29.15 141.913 29.15ZM142.993 26.12C143.433 26.12 143.853 25.86 144.253 25.34C144.653 24.82 144.943 24.13 145.123 23.27L146.233 17.75C145.393 17.77 144.613 18.09 143.893 18.71C143.193 19.31 142.633 20.11 142.213 21.11C141.793 22.11 141.583 23.17 141.583 24.29C141.583 24.91 141.703 25.37 141.943 25.67C142.203 25.97 142.553 26.12 142.993 26.12ZM164.195 19.85C164.195 21.43 163.825 22.93 163.085 24.35C162.365 25.75 161.395 26.89 160.175 27.77C158.975 28.65 157.685 29.11 156.305 29.15C156.045 33.01 155.455 36.23 154.535 38.81C153.615 41.41 152.265 42.71 150.485 42.71C149.405 42.71 148.605 42.32 148.085 41.54C147.565 40.76 147.305 39.68 147.305 38.3C147.305 36.34 147.755 34.05 148.655 31.43C149.555 28.83 150.945 25.96 152.825 22.82C152.825 19.9 152.805 17.87 152.765 16.73C152.745 16.15 152.975 15.69 153.455 15.35C153.935 15.01 154.535 14.84 155.255 14.84C155.675 14.84 155.975 14.93 156.155 15.11C156.355 15.27 156.465 15.6 156.485 16.1C156.485 16.6 156.495 16.97 156.515 17.21C157.155 16.41 157.785 15.84 158.405 15.5C159.025 15.14 159.685 14.96 160.385 14.96C161.505 14.96 162.415 15.41 163.115 16.31C163.835 17.21 164.195 18.39 164.195 19.85ZM156.455 26.27C157.175 26.11 157.835 25.72 158.435 25.1C159.055 24.46 159.545 23.68 159.905 22.76C160.265 21.82 160.445 20.84 160.445 19.82C160.445 19.22 160.325 18.77 160.085 18.47C159.845 18.15 159.525 17.99 159.125 17.99C158.405 17.99 157.535 18.75 156.515 20.27C156.495 21.15 156.485 22.44 156.485 24.14C156.485 25.06 156.475 25.77 156.455 26.27ZM150.725 39.77C151.265 39.77 151.715 38.59 152.075 36.23C152.435 33.89 152.665 30.97 152.765 27.47C151.905 29.47 151.225 31.38 150.725 33.2C150.225 35.02 149.975 36.55 149.975 37.79C149.975 38.43 150.055 38.92 150.215 39.26C150.355 39.6 150.525 39.77 150.725 39.77Z" fill="#B23A48"/>
</svg>
