<svg id="Layer_1" data-name="Layer 1" xmlns="http://www.w3.org/2000/svg" viewBox="0 0 1229 892"><defs><style>.cls-1{fill:none;}.cls-2{fill:#e4717a;}.cls-3{fill:#fcca80;}.cls-4{fill:#fab660;}</style></defs><title>demo-large</title><rect class="cls-1" x="213" width="824" height="892"/><circle class="cls-2" cx="263" cy="108" r="36"/><circle class="cls-2" cx="1051" cy="262" r="36"/><circle class="cls-2" cx="1203" cy="154" r="26"/><circle class="cls-2" cx="342" cy="272" r="26"/><circle class="cls-2" cx="26" cy="226" r="26"/><circle class="cls-2" cx="994" cy="144" r="13"/><circle class="cls-2" cx="684.71" cy="291.55" r="204"/><path class="cls-2" d="M881.26,557.86c0,11.1-12.09,28.09-27,28.09s-27-17-27-28.09c0-18.74,27-63.12,27-63.12S881.26,539.12,881.26,557.86Z" transform="translate(-61)"/><path class="cls-3" d="M822.08,479.05,550,348,509.13,714.22c-3.35,30,33,47.36,54.24,25.93Z" transform="translate(-61)"/><polygon class="cls-4" points="740.97 499.34 764.77 479.05 625.63 412.94 488.99 348.02 485.81 376.47 612.93 437.68 740.97 499.34"/><path class="cls-2" d="M840.5,406l26.62,12.55c15,7.23,20.24,27.83,11.6,45.78h0c-8.64,17.94-28,26.71-43,19.47l-36-17.31Z" transform="translate(-61)"/><path class="cls-2" d="M542,265.15" transform="translate(-61)"/><path class="cls-2" d="M958.89,736.69c0,7.17-47.12,13-105.25,13s-105.26-5.81-105.26-13,62.26-1.22,105.26-13C889.56,713.9,958.89,731.32,958.89,736.69Z" transform="translate(-61)"/></svg>