<svg xmlns="http://www.w3.org/2000/svg" xmlns:xlink="http://www.w3.org/1999/xlink" viewBox="0 0 262.21 449.56"><defs><style>.cls-1{fill:none;}.cls-2{fill:#fff6c6;}.cls-3{fill:#f9b6ad;}.cls-4{fill:#611e0b;}.cls-5{clip-path:url(#clip-path);}.cls-6{fill:#f9ae51;}.cls-7{fill:#f7cfa4;}.cls-8{fill:#f8ae51;}</style><clipPath id="clip-path"><polygon id="_Clipping_Path_" data-name="&lt;Clipping Path&gt;" class="cls-1" points="22.81 195.63 115.91 436.37 205.03 195.63 22.81 195.63"/></clipPath></defs><title>Asset 2</title><g id="Layer_2" data-name="Layer 2"><g id="Layer_1-2" data-name="Layer 1"><circle id="_Path_" data-name="&lt;Path&gt;" class="cls-2" cx="128.84" cy="87.29" r="74.37"/><circle id="_Path_2" data-name="&lt;Path&gt;" class="cls-3" cx="74.37" cy="146.4" r="74.37"/><circle id="_Path_3" data-name="&lt;Path&gt;" class="cls-4" cx="186.64" cy="154.8" r="75.57"/><g id="_Clip_Group_" data-name="&lt;Clip Group&gt;"><g class="cls-5"><polygon id="_Path_4" data-name="&lt;Path&gt;" class="cls-6" points="22.81 195.63 115.91 436.37 205.03 195.63 22.81 195.63"/><rect id="_Rectangle_" data-name="&lt;Rectangle&gt;" class="cls-7" x="26.44" y="324.7" width="241.83" height="7.89" transform="translate(476.01 181.28) rotate(90)"/><rect id="_Rectangle_2" data-name="&lt;Rectangle&gt;" class="cls-7" x="-4" y="320.02" width="241.83" height="7.89" transform="translate(440.88 207.05) rotate(90)"/><rect id="_Rectangle_3" data-name="&lt;Rectangle&gt;" class="cls-7" x="-73.16" y="324.7" width="241.83" height="7.89" transform="translate(376.4 280.89) rotate(90)"/><rect id="_Rectangle_4" data-name="&lt;Rectangle&gt;" class="cls-7" x="-39.91" y="324.7" width="241.83" height="7.89" transform="translate(409.65 247.64) rotate(90)"/><rect id="_Rectangle_5" data-name="&lt;Rectangle&gt;" class="cls-7" x="62.31" y="324.7" width="241.83" height="7.89" transform="translate(511.87 145.42) rotate(90)"/><rect id="_Rectangle_6" data-name="&lt;Rectangle&gt;" class="cls-7" x="35.93" y="281.61" width="162.27" height="7.89"/><rect id="_Rectangle_7" data-name="&lt;Rectangle&gt;" class="cls-7" x="32.78" y="312.06" width="162.27" height="7.89"/><rect id="_Rectangle_8" data-name="&lt;Rectangle&gt;" class="cls-7" x="35.93" y="381.22" width="162.27" height="7.89"/><rect id="_Rectangle_9" data-name="&lt;Rectangle&gt;" class="cls-7" x="35.93" y="347.97" width="162.27" height="7.89"/><rect id="_Rectangle_10" data-name="&lt;Rectangle&gt;" class="cls-7" x="35.93" y="245.75" width="162.27" height="7.89"/></g></g><rect id="_Rectangle_11" data-name="&lt;Rectangle&gt;" class="cls-4" x="22.81" y="195.63" width="182.22" height="32.61"/><rect id="_Rectangle_12" data-name="&lt;Rectangle&gt;" class="cls-8" x="193.03" y="-3.32" width="24" height="115.27" rx="12" ry="12" transform="translate(35.21 -72.75) rotate(21.97)"/></g></g></svg>