<svg xmlns="http://www.w3.org/2000/svg" xmlns:xlink="http://www.w3.org/1999/xlink" viewBox="0 0 194.45 430.52"><defs><style>.cls-1{fill:none;}.cls-2{clip-path:url(#clip-path);}.cls-3{fill:#f9ae51;}.cls-4{fill:#f7cfa4;}.cls-5{fill:#fdf7be;}</style><clipPath id="clip-path"><polygon id="_Clipping_Path_" data-name="&lt;Clipping Path&gt;" class="cls-1" points="3.75 176.59 96.86 417.33 185.97 176.59 3.75 176.59"/></clipPath></defs><title>Asset 1</title><g id="Layer_2" data-name="Layer 2"><g id="Layer_1-2" data-name="Layer 1"><g id="_Clip_Group_" data-name="&lt;Clip Group&gt;"><g class="cls-2"><polygon id="_Path_" data-name="&lt;Path&gt;" class="cls-3" points="3.75 176.59 96.86 417.33 185.97 176.59 3.75 176.59"/><rect id="_Rectangle_" data-name="&lt;Rectangle&gt;" class="cls-4" x="7.39" y="305.66" width="241.83" height="7.89" transform="translate(437.91 181.3) rotate(90)"/><rect id="_Rectangle_2" data-name="&lt;Rectangle&gt;" class="cls-4" x="-23.06" y="300.98" width="241.83" height="7.89" transform="translate(402.78 207.06) rotate(90)"/><rect id="_Rectangle_3" data-name="&lt;Rectangle&gt;" class="cls-4" x="-92.22" y="305.66" width="241.83" height="7.89" transform="translate(338.3 280.91) rotate(90)"/><rect id="_Rectangle_4" data-name="&lt;Rectangle&gt;" class="cls-4" x="-58.97" y="305.66" width="241.83" height="7.89" transform="translate(371.56 247.66) rotate(90)"/><rect id="_Rectangle_5" data-name="&lt;Rectangle&gt;" class="cls-4" x="43.25" y="305.66" width="241.83" height="7.89" transform="translate(473.78 145.44) rotate(90)"/><rect id="_Rectangle_6" data-name="&lt;Rectangle&gt;" class="cls-4" x="16.87" y="262.57" width="162.27" height="7.89"/><rect id="_Rectangle_7" data-name="&lt;Rectangle&gt;" class="cls-4" x="13.73" y="293.02" width="162.27" height="7.89"/><rect id="_Rectangle_8" data-name="&lt;Rectangle&gt;" class="cls-4" x="16.87" y="362.18" width="162.27" height="7.89"/><rect id="_Rectangle_9" data-name="&lt;Rectangle&gt;" class="cls-4" x="16.87" y="328.93" width="162.27" height="7.89"/><rect id="_Rectangle_10" data-name="&lt;Rectangle&gt;" class="cls-4" x="16.87" y="226.71" width="162.27" height="7.89"/></g></g><path id="_Path_2" data-name="&lt;Path&gt;" class="cls-5" d="M164.61,109.8c3.36-3.29,6.62-6.58,7.2-11.08.81-6.33-4.29-11.9-9.74-15.23S150.34,77.93,146,73.26c-6.64-7.13-6.63-19.44,0-26.56,3.58-3.82,9.06-7,9.19-12.18.11-4.81-4.64-8.33-9.25-9.71-11.15-3.36-25.21-3-35.09-9.41C104.2,11.07,99.65,3.07,91.87.49,86.4-1.33,80.1,2.71,74.81.34,81.7,3.42,90.55,11.82,85,19.8a9.34,9.34,0,0,1-3.26,2.56,100.1,100.1,0,0,1-25.35,9.92c-14.65,3.53-8.7,23,3.46,26.33,7,1.9,16,4.36,16.68,11.57.59,6.15-6,10.67-12.07,11.72s-12.56.17-18.29,2.48c-12.69,5.11-24.72,33.87-8.39,41.68,2.67,1.27,5.68,1.77,8.2,3.32s4.46,4.75,3.19,7.42c-8.06,2.91-16.84,2.92-25.27,4.44C10.37,143.68.87,155.12.06,168.65c-1,16.9,10.3,18.6,24.26,23.63A9.44,9.44,0,0,1,27.67,194a7.71,7.71,0,0,1,2,4.67A21.28,21.28,0,0,1,20.07,219c13.72-8.61,37.17-13.7,52.63-18.8,15.07-5,32-5.28,47.9-5.94,15.3-.63,30.79-.52,45.64-4.28,11.68-3,29.71-7.76,28.11-23.23-1-9.5-8.5-17.08-16.69-22-4.93-3-10.29-5.29-14.59-9.1s-7.44-9.64-6.09-15.22C158,116.19,161.35,113,164.61,109.8Z"/></g></g></svg>